<svg width="32" height="32" viewBox="0 0 32 32" fill="none" xmlns="http://www.w3.org/2000/svg">
<path d="M9.183 11.9212L2.51356 11.4842C1.29738 11.4425 0.56663 12.8191 1.28227 13.803L4.16516 17.9781C4.48809 18.4224 4.53444 19.011 4.28495 19.5006L3.20316 21.6235C2.67658 22.6564 3.50577 23.8616 4.65893 23.7392L17.729 22.3522C17.8369 22.3407 17.9457 22.3413 18.0535 22.3538L29.3658 23.7882C30.5434 23.9267 31.3867 22.6777 30.8184 21.6371L28.721 17.5286C28.4772 17.0818 28.483 16.5406 28.7371 16.0994L29.6314 14.5468C30.2226 13.5202 29.4106 12.2535 28.2309 12.3629L23.6438 12.7884C23.4266 12.8087 23.2078 12.7796 23.0031 12.704L13.2123 9.09041C12.5695 8.85342 11.8482 9.09457 11.4778 9.67063L10.4617 11.2514C10.183 11.6842 9.69759 11.9389 9.183 11.9212Z" fill="#048DFF"/>
</svg>
